<svg height="66.980042mm" viewBox="0 0 203.08657 66.98004" width="203.08656mm" xmlns="http://www.w3.org/2000/svg"><path d="m154.26445 12.19791c-18.86893 0-34.75818 14.947231-34.75818 33.160972 0 7.27261 2.01648 14.662585 8.32767 21.905886 5.67243 6.510236 14.36238 11.529784 26.43051 11.91318 15.16271 0 22.26888-5.997656 29.44698-12.033772l-9.62916-11.327712c-2.59533 2.131922-4.65333 4.123308-7.51075 5.703632-3.39234 1.876165-6.51417 2.749556-12.30707 2.749556-12.13707 0-20.02495-9.449218-20.02495-18.91077 0-9.573555 8.90197-18.333115 20.02495-18.333115 7.2704.000551 12.2715 2.841019 16.53396 7.488464l10.56952-10.4182c-7.39761-8.008315-16.29695-11.898121-27.10348-11.898121zm-173.639582 1.659333v63.631991h13.8948037v-41.374399l30.7565663 41.374399h14.797213v-63.631991h-13.819951v41.284362l-30.7460409-41.284362zm72.059487 0v63.631991h37.601445c4.48179-.000717 10.48623-1.229935 14.21783-3.897245 2.25483-1.611723 4.09618-3.389394 5.43871-6.336634 1.49515-3.282242 2.05648-6.779107 2.05648-9.411973 0-6.436689-2.47084-10.790857-9.4705-14.618234 1.64444-.957382 3.43402-2.167005 4.85867-3.946328 1.5145-1.89153 2.39197-4.012945 2.39197-7.359634 0-11.886395-10.111924-18.061943-19.49316-18.061943zm13.381405 11.947858h21.080924c6.552272 0 8.281722 2.711291 8.281722 6.114535 0 1.960809-.703978 3.292742-2.105932 4.401294-.914396.723041-2.826877 1.460067-4.26879 1.460067h-.399843l-22.588081.0091zm0 23.933229h11.066336 9.552947.199909.199934c3.444099 0 6.015953.516076 7.892172 1.86907 1.793516 1.293353 2.725979 3.304343 2.725979 5.882334 0 2.338307-.89177 4.229164-2.570359 5.535429-1.948479 1.516308-4.143937 2.02798-7.841415 2.02798h-21.225503z" transform="translate(19.375132 -12.19791)"/></svg>