<?xml version="1.0" encoding="UTF-8" standalone="no"?>
<!-- Created with Inkscape (http://www.inkscape.org/) -->

<svg
   width="264.5174mm"
   height="264.51776mm"
   viewBox="0 0 264.5174 264.51776"
   version="1.1"
   id="svg1"
   xmlns="http://www.w3.org/2000/svg"
   xmlns:svg="http://www.w3.org/2000/svg">
  <defs
     id="defs1" />
  <g
     id="layer1"
     transform="translate(28.839582,-16.933333)">
    <path
       clip-rule="evenodd"
       d="m 197.45136,56.185101 c 24.48338,24.753024 38.22646,58.171609 38.22646,93.006909 0,17.36839 -3.42114,34.56687 -10.06779,50.61306 -6.55027,15.81489 -16.1076,30.20478 -28.13939,42.37436 -0.35266,0.35698 -0.7075,0.71178 -1.06446,1.06446 -12.16887,12.0318 -26.55947,21.58841 -42.37365,28.13939 -16.04619,6.64665 -33.24467,10.06779 -50.61306,10.06779 -17.369102,0 -34.566863,-3.42114 -50.613771,-10.06779 -15.814315,-6.55098 -30.204563,-16.10759 -42.37379,-28.13939 -0.356891,-0.35266 -0.7117103,-0.7075 -1.0646053,-1.06446 -12.0314364,-12.16958 -21.5886917,-26.55947 -28.1393157,-42.37436 -6.646593,-16.04619 -10.067571,-33.24467 -10.067571,-50.61306 0,-34.87528 13.774344,-68.330277 38.310334,-93.091724 0.2842559,-0.286779 0.569787,-0.572357 0.85664,-0.856571 24.761447,-24.535987 58.216798,-38.310383 93.092079,-38.310383 34.83459,0 68.25346,13.742767 93.00599,38.225856 0.34412,0.340103 0.68608,0.682085 1.0259,1.025913 z m -85.76606,13.651759 38.57556,73.66088 c 0.40623,0.65252 0.64182,1.39644 0.68537,2.16391 0.0442,0.76747 -0.10562,1.53351 -0.43477,2.22816 -0.32917,0.69465 -0.82673,1.29578 -1.44856,1.74769 -0.62183,0.45263 -1.34647,0.74106 -2.10894,0.84029 l -14.69545,2.93923 v 27.1863 c 0,9.00118 -7.5312,16.3489 -17.26702,16.3489 h -7.53119 v 31.59479 H 47.94386 V 190.7068 C 35.9322,187.31137 25.335039,180.13427 17.724516,170.24068 10.113926,160.34639 5.8953391,148.26319 5.6945125,135.78234 5.6704145,127.10029 7.3653131,118.49891 10.682284,110.4751 13.999185,102.45128 18.872227,95.163527 25.020199,89.032329 31.168102,82.901635 38.46928,78.048864 46.502445,74.754242 54.535537,71.459617 63.141199,69.788313 71.823969,69.83686 Z M 85.233633,124.2096 c 0,8.26655 6.796577,15.06312 15.062407,15.06312 8.26656,0 15.06313,-6.79657 15.06313,-15.06312 0,-8.26583 -6.79657,-15.06241 -15.06313,-15.06241 -8.26583,0 -15.062407,6.79658 -15.062407,15.06241 z m 99.928927,29.20742 14.69545,-2.93923 c 3.12271,-0.55115 4.77545,-4.2243 3.122,-6.98005 L 164.40516,69.83686 h -24.06358 l 38.57556,73.66088 c 0.32197,0.6668 0.49118,1.39786 0.49404,2.13892 0.003,0.74034 -0.16066,1.47283 -0.47762,2.14249 -0.31696,0.66895 -0.78033,1.25936 -1.35575,1.72627 -0.57471,0.46691 -1.24723,0.7996 -1.96758,0.97237 l -14.69545,2.93923 v 27.1863 c 0,9.00118 -7.5312,16.3489 -17.26701,16.3489 h -7.53121 v 31.59479 h 24.24707 v -31.59479 h 7.53192 c 9.73509,0 17.26701,-7.16424 17.26701,-16.3489 z"
       fill="#516071"
       fill-rule="evenodd"
       id="path1"
       style="fill:#000000;fill-opacity:1;stroke-width:7.13926" />
  </g>
</svg>
