<?xml version="1.0"?>
<svg xmlns="http://www.w3.org/2000/svg" width="1000" height="427.6326">
<g transform="translate(-630.17007,-424.80045) matrix(2.7039455,0,0,2.7039455,-1073.7754,-1452.4994)">
 <path d="m 678.14526,765.10874 h 18.8113 c 16.0161,0 24.74274,-9.98113 24.74274,-22.27029 0,-12.74589 -9.18947,-22.30683 -24.74274,-22.30683 h -18.8113 z m -28.23218,-44.55276 h -19.48726 v -24.13376 h 64.45413 c 35.01009,0 55.03325,18.05617 55.03325,46.41623 0,28.90205 -20.97317,46.4954 -54.10152,46.4954 -2.76475,0.0487 -17.66642,0.0183 -17.66642,0.0183 v 36.69695 h 22.84273 v 24.27992 H 630.17005 V 826.0491 h 19.74303 z" style="fill:#000000;fill-rule:nonzero;stroke:none" />
 <path d="m 805.65287,758.02575 h 16.86257 c 12.70327,0 21.2533,-7.5026 21.2533,-18.77476 0,-11.1321 -8.4526,-18.70169 -21.2533,-18.70169 h -16.86257 z m 0,68.02274 h 17.97091 c 14.81641,0 24.85845,-8.1603 24.85845,-21.93536 0,-11.64364 -7.81318,-21.78311 -24.85845,-21.78311 h -17.97091 z m -28.20173,-105.4931 h -17.70905 v -24.13376 h 61.8538 c 38.29248,0 50.51464,22.92799 50.51464,39.63832 0,14.17089 -7.55131,25.55267 -18.5738,30.94212 15.46802,6.46734 24.16421,22.36773 24.16421,36.29503 0,33.51201 -26.31998,47.0313 -51.51336,47.0313 h -68.47947 v -24.27991 h 19.74303 z" style="fill:#000000;fill-rule:nonzero;stroke:none" />
 <path d="m 968.49761,720.27283 c -5.05451,-1.967 -11.668,-3.71476 -18.2754,-3.71476 -18.86002,0 -24.89498,10.92505 -24.89498,19.44464 0,11.14428 7.19811,14.41448 16.1318,16.82603 l 16.33885,4.57951 c 20.02926,5.68785 42.20211,13.11737 42.20211,44.79026 0,29.0543 -17.50809,50.23452 -56.20249,50.23452 -14.96256,0 -30.52193,-1.74777 -48.80342,-8.50132 V 803.5139 h 28.3966 v 20.09015 c 7.19202,3.2763 14.97475,3.934 22.94017,3.934 16.72251,0 24.11549,-8.95806 24.11549,-20.53471 0,-7.86189 -3.89137,-13.54365 -22.17286,-18.78694 l -14.96865,-4.36637 c -27.99468,-8.0933 -37.52517,-20.32765 -37.52517,-43.91942 0,-24.24338 15.16962,-45.64892 53.66306,-45.64892 16.52155,0 33.04918,3.05706 44.71718,8.08113 v 36.47772 h -25.66229 z" style="fill:#000000;fill-rule:nonzero;stroke:none" />
</g>
</svg>
